<svg xmlns="http://www.w3.org/2000/svg" version="1.1" xmlns:xlink="http://www.w3.org/1999/xlink" xmlns:svgjs="http://svgjs.dev/svgjs" width="1000" height="162" viewBox="0 0 1000 162"><g transform="matrix(1,0,0,1,0.3486727669686047,0.2970164616859705)"><svg viewBox="0 0 362 59" data-background-color="#ffffff" preserveAspectRatio="xMidYMid meet" height="162" width="1000" xmlns="http://www.w3.org/2000/svg" xmlns:xlink="http://www.w3.org/1999/xlink"><g id="tight-bounds" transform="matrix(1,0,0,1,-0.1262195416426266,-0.10817266197204845)"><svg viewBox="0 0 362.25243908328525 59.21634532394408" height="59.21634532394408" width="362.25243908328525"><g><svg viewBox="0 0 362.25243908328525 59.21634532394408" height="59.21634532394408" width="362.25243908328525"><g><svg viewBox="0 0 362.25243908328525 59.21634532394408" height="59.21634532394408" width="362.25243908328525"><g id="textblocktransform"><svg viewBox="0 0 362.25243908328525 59.21634532394408" height="59.21634532394408" width="362.25243908328525" id="textblock"><g><svg viewBox="0 0 362.25243908328525 59.21634532394408" height="59.21634532394408" width="362.25243908328525"><g><svg><g></g><g></g></svg></g><g><svg><g></g><g><svg></svg></g></svg></g><g id="text-0"><svg viewBox="0 0 362.25243908328525 59.21634532394408" height="59.21634532394408" width="362.25243908328525"><g><svg xmlns="http://www.w3.org/2000/svg" xmlns:xlink="http://www.w3.org/1999/xlink" version="1.1" x="0" y="0" viewBox="19.403 19.403 261.19300003318745 261.19399999999996" enable-background="new 0 0 300 300" xml:space="preserve" height="59.21634532394408" width="59.21611861743443" class="icon-z$-0" data-fill-palette-color="accent" id="z$-0"><path d="M230.223 280.597H69.777c-27.776 0-50.374-22.597-50.374-50.372V69.777c0-27.776 22.598-50.374 50.374-50.374h160.445c27.776 0 50.374 22.598 50.374 50.374v160.448C280.597 258 257.999 280.597 230.223 280.597zM69.777 30.598c-21.604 0-39.181 17.576-39.181 39.179v160.448c0 21.603 17.576 39.179 39.181 39.179h160.445c21.604 0 39.181-17.576 39.181-39.179V69.777c0-21.604-17.576-39.179-39.181-39.179H69.777z" fill="#ed2647" data-fill-palette-color="accent"></path><polygon points="128.092,94.407 128.092,104.407 202.5,104.407 202.5,175.592 179.929,175.592 171.998,183.523 164.067,175.592   97.5,175.592 97.5,104.407 108.092,104.407 108.092,94.407 87.5,94.407 87.5,185.592 159.925,185.592 171.998,197.664   184.071,185.592 212.5,185.592 212.5,94.407 " fill="#ed2647" data-fill-palette-color="accent"></polygon></svg></g><g transform="matrix(1,0,0,1,73.19673908328527,0)"><svg width="289.0557" viewBox="2.25 -36.19939019235199 178.64 36.59939019235199" height="59.21634532394408" data-palette-color="#ff0000"><path d="M20 0.4L20 0.4Q17.25 0.4 14.6-0.3 11.95-1 10-2.25L10-2.25Q7.8-3.65 6.03-6.2 4.25-8.75 3.25-11.78 2.25-14.8 2.25-17.6L2.25-17.6Q2.25-21.35 3.85-24.9 5.45-28.45 8.35-31.35L8.35-31.35Q10.55-33.55 13.3-34.75L13.3-34.75Q16.55-36.1 19.85-36.1L19.85-36.1Q22.7-36.1 25.55-35L25.55-35Q27.4-34.3 28.7-33.23 30-32.15 31.55-30.4L31.55-30.4 33.05-28.55Q33.65-27.8 33.65-27L33.65-27Q33.65-26 32.85-25.25 32.05-24.5 31-24.5L31-24.5Q29.95-24.5 29.15-25.45L29.15-25.45 27.3-27.7Q26.6-28.45 25.65-29.18 24.7-29.9 23.75-30.3L23.75-30.3Q21.6-31.2 19.45-31.05L19.45-31.05Q14.9-30.65 11.8-27.7L11.8-27.7Q7.25-23.3 7.25-17.6L7.25-17.6Q7.25-14.55 8.88-11.23 10.5-7.9 12.7-6.45L12.7-6.45Q14.05-5.6 15.95-5.1 17.85-4.6 19.85-4.6L19.85-4.6Q25.9-4.6 27.75-7.95L27.75-7.95Q28.1-8.55 28.6-10.25L28.6-10.25 29.1-11.85Q29.4-12.65 30.03-13.1 30.65-13.55 31.35-13.55L31.35-13.55Q32.35-13.55 33.15-12.85 33.95-12.15 33.95-11.05L33.95-11.05Q33.95-10.6 33.8-10.15L33.8-10.15 33.45-9.1Q32.6-6.5 32.15-5.55L32.15-5.55Q30.6-2.85 27.8-1.4 25 0.05 21.4 0.35L21.4 0.35Q20.95 0.4 20 0.4L20 0.4ZM45.35-2.45L45.35-2.45Q45.35-1.4 44.6-0.7 43.85 0 42.8 0 41.75 0 41.05-0.75 40.35-1.5 40.35-2.55L40.35-2.55Q40.45-7.15 40.2-17.32 39.95-27.5 40.15-33.4L40.15-33.4Q40.2-34.4 40.95-35.13 41.7-35.85 42.72-35.8 43.75-35.75 44.47-35 45.2-34.25 45.15-33.2L45.15-33.2Q45-27.85 45.15-20.55L45.15-20.55Q56.95-20.95 62.45-20.9L62.45-20.9Q62.4-27.7 62.7-33.3L62.7-33.3Q62.75-34.35 63.52-35.02 64.3-35.7 65.35-35.65 66.4-35.6 67.07-34.83 67.75-34.05 67.7-33L67.7-33Q67.45-27.15 67.4-23.05L67.4-23.05Q67.4-18.1 67.52-11.93 67.65-5.75 67.65-2.5L67.65-2.5Q67.65-1.45 66.92-0.73 66.2 0 65.15 0 64.1 0 63.37-0.73 62.65-1.45 62.65-2.5L62.65-2.5Q62.65-4.25 62.5-15.9L62.5-15.9Q57.1-15.95 45.25-15.55L45.25-15.55Q45.45-7.1 45.35-2.45L45.35-2.45ZM77.55-1.5L77.55-1.5Q77.15-0.5 76.17-0.1 75.2 0.3 74.22-0.1 73.25-0.5 72.85-1.48 72.45-2.45 72.85-3.4L72.85-3.4Q73.85-5.85 75.47-10.85 77.1-15.85 77.8-17.6L77.8-17.6Q78.15-18.6 80.65-24.7L80.65-24.7Q83-30.7 84.3-34.45L84.3-34.45Q84.65-35.45 85.57-35.93 86.5-36.4 87.5-36.05L87.5-36.05Q87.95-35.9 88.3-35.6L88.3-35.6Q89.3-35.25 89.7-34.25L89.7-34.25 102.15-3.5Q102.55-2.5 102.15-1.53 101.75-0.55 100.77-0.15 99.8 0.25 98.82-0.15 97.85-0.55 97.45-1.5L97.45-1.5 93.7-11.2Q91.65-11.1 91.4-11.1L91.4-11.1Q84.65-10.85 80.8-10.85L80.8-10.85Q78.55-4.25 77.55-1.5L77.55-1.5ZM82.65-15.95L82.65-15.95Q86.85-16 91.65-16.15L91.65-16.15 87.1-27.15 82.65-15.95ZM114.64-2.5L114.64-2.5Q114.64-1.45 113.89-0.75 113.14-0.05 112.09-0.05 111.04-0.05 110.34-0.8 109.64-1.55 109.64-2.6L109.64-2.6Q109.69-4.35 109.59-16.75L109.59-16.75Q109.54-25.8 109.89-30.75L109.89-30.75Q104.44-30.8 100.69-30.65L100.69-30.65Q99.64-30.6 98.89-31.33 98.14-32.05 98.09-33.08 98.04-34.1 98.77-34.85 99.49-35.6 100.49-35.65L100.49-35.65Q104.79-35.8 112.44-35.75 120.09-35.7 124.39-35.75L124.39-35.75Q125.44-35.75 126.19-35.05 126.94-34.35 126.94-33.3 126.94-32.25 126.24-31.5 125.54-30.75 124.49-30.75L124.49-30.75Q120.94-30.7 114.89-30.7L114.89-30.7Q114.54-25.9 114.59-16.8L114.59-16.8Q114.69-4.35 114.64-2.5L114.64-2.5ZM144.19 0.1L144.19 0.1Q137.69 0.2 134.94 0.05L134.94 0.05Q133.99 0 133.29-0.68 132.59-1.35 132.54-2.35L132.54-2.35Q132.49-2.6 132.49-2.8L132.49-2.8Q132.44-5.65 132.24-16.25 132.04-26.85 132.04-33.55L132.04-33.55Q132.04-34.6 132.77-35.33 133.49-36.05 134.54-36.05 135.59-36.05 136.31-35.33 137.04-34.6 137.04-33.55L137.04-33.55Q137.04-28.5 137.12-23.85 137.19-19.2 137.31-13.63 137.44-8.05 137.44-4.9L137.44-4.9Q140.04-4.85 145.42-4.95 150.79-5.05 153.59-5L153.59-5Q154.64-5 155.34-4.25 156.04-3.5 156.04-2.45 156.04-1.4 155.29-0.7 154.54 0 153.49 0L153.49 0Q150.79-0.05 144.19 0.1L144.19 0.1ZM164.09-2.25L164.09-2.25Q163.89-3.7 163.84-8.75L163.84-8.75Q163.79-11.95 163.74-13.05L163.74-13.05 155.74-26.2Q153.89-29.3 152.34-32.2L152.34-32.2Q151.84-33.1 152.14-34.1 152.44-35.1 153.34-35.6 154.24-36.1 155.24-35.8 156.24-35.5 156.74-34.6L156.74-34.6Q158.99-30.4 166.09-18.75L166.09-18.75Q167.04-20.3 168.94-23 170.84-25.7 171.54-26.85L171.54-26.85Q171.89-27.4 173.84-30.8L173.84-30.8Q175.29-33.35 176.34-34.9L176.34-34.9Q176.89-35.75 177.91-35.95 178.94-36.15 179.79-35.58 180.64-35 180.84-33.98 181.04-32.95 180.44-32.1L180.44-32.1Q179.79-31.1 178.19-28.3L178.19-28.3 175.84-24.25Q174.94-22.85 172.44-19.28 169.94-15.7 168.84-13.4L168.84-13.4Q168.79-13.25 168.74-13.15L168.74-13.15Q168.79-12.05 168.84-8.8L168.84-8.8Q168.89-4.1 169.09-2.75L169.09-2.75Q169.19-1.7 168.51-0.9 167.84-0.1 166.81 0 165.79 0.1 164.99-0.58 164.19-1.25 164.09-2.25L164.09-2.25Z" opacity="1" transform="matrix(1,0,0,1,0,0)" fill="#ff0000" class="wordmark-text-0" data-fill-palette-color="primary"></path></svg></g></svg></g></svg></g></svg></g></svg></g></svg></g><defs></defs></svg><rect width="362.25243908328525" height="59.21634532394408" fill="none" stroke="none" visibility="hidden"></rect></g></svg></g></svg>